<?xml version="1.0" encoding="UTF-8"?> <svg xmlns="http://www.w3.org/2000/svg" width="650" height="550" viewBox="0 0 650 550" fill="none"><g opacity="0.4"><path opacity="0.4" d="M55.0608 139.544C75.8062 139.544 92.6236 122.718 92.6236 101.963C92.6236 81.2082 75.8062 64.3828 55.0608 64.3828C34.3155 64.3828 17.498 81.2082 17.498 101.963C17.498 122.718 34.3155 139.544 55.0608 139.544Z" fill="#7083D4"></path><path d="M59.5598 93.8851C58.5206 91.4508 56.8122 89.9903 54.2761 89.573C53.6068 89.4686 52.9199 89.4512 52.2506 89.4512C49.5736 89.4339 46.9141 89.4512 44.237 89.4339C42.9689 89.4339 42.0002 88.4775 42.0002 87.243C41.9826 85.9737 42.9513 85 44.2546 85C51.7575 85 59.2604 85 66.7456 85C68.0489 85 69 85.9737 69 87.243C68.9824 88.4601 68.0313 89.4165 66.7632 89.4339C65.3014 89.4512 63.822 89.4339 62.413 89.4339C63.0822 90.8944 63.7515 92.3202 64.4736 93.8851C65.0901 93.8851 65.8826 93.8851 66.6752 93.8851C68.0313 93.9025 69 94.8414 69 96.1281C68.9824 97.38 68.0137 98.3016 66.6928 98.319C65.9002 98.319 65.1077 98.319 64.3679 98.319C62.1664 105.552 56.9531 107.847 49.6616 107.117C49.9963 107.482 50.1548 107.656 50.3309 107.83C54.7692 112.212 59.2075 116.593 63.6458 120.992C64.7026 122.036 64.7906 123.305 63.9276 124.261C63.0999 125.148 61.7789 125.252 60.8279 124.487C60.6694 124.348 60.5108 124.209 60.3699 124.053C54.5579 118.315 48.7282 112.577 42.9337 106.804C42.5286 106.404 42.1587 105.83 42.0531 105.291C41.7889 103.953 42.8632 102.77 44.2546 102.77C47.143 102.753 50.0139 102.77 52.9023 102.77C55.5265 102.753 57.6048 101.727 59.0138 99.4839C59.1547 99.2753 59.2428 99.0318 59.366 98.8058C59.4189 98.6841 59.4717 98.545 59.5422 98.3363C59.2251 98.3363 58.9786 98.3363 58.732 98.3363C53.9062 98.3363 49.0804 98.3363 44.2546 98.3363C43.145 98.3363 42.194 97.5365 42.0355 96.4933C41.8593 95.3631 42.5286 94.3024 43.6558 93.9894C43.9376 93.9025 44.2546 93.9025 44.554 93.9025C49.2565 93.9025 53.9766 93.9025 58.6791 93.9025C58.9257 93.8851 59.1723 93.8851 59.5598 93.8851Z" fill="#24326E"></path><path opacity="0.4" d="M587.743 252.507C599.752 252.507 609.486 242.768 609.486 230.753C609.486 218.739 599.752 209 587.743 209C575.735 209 566 218.739 566 230.753C566 242.768 575.735 252.507 587.743 252.507Z" fill="#24326E"></path><path d="M589.105 227.443C588.566 226.225 587.68 225.495 586.365 225.286C586.018 225.234 585.662 225.226 585.315 225.226C583.927 225.217 582.548 225.226 581.16 225.217C580.502 225.217 580 224.739 580 224.122C579.991 223.487 580.493 223 581.169 223C585.059 223 588.95 223 592.831 223C593.507 223 594 223.487 594 224.122C593.991 224.73 593.498 225.208 592.84 225.217C592.082 225.226 591.315 225.217 590.585 225.217C590.932 225.947 591.279 226.66 591.653 227.443C591.973 227.443 592.384 227.443 592.795 227.443C593.498 227.451 594 227.921 594 228.564C593.991 229.19 593.489 229.651 592.804 229.659C592.393 229.659 591.982 229.659 591.598 229.659C590.457 233.276 587.753 234.424 583.973 234.059C584.146 234.241 584.228 234.328 584.32 234.415C586.621 236.606 588.922 238.797 591.224 240.996C591.772 241.518 591.817 242.153 591.37 242.631C590.941 243.074 590.256 243.126 589.763 242.744C589.68 242.674 589.598 242.605 589.525 242.526C586.511 239.657 583.489 236.788 580.484 233.902C580.274 233.702 580.082 233.415 580.028 233.146C579.891 232.476 580.448 231.885 581.169 231.885C582.667 231.876 584.155 231.885 585.653 231.885C587.014 231.876 588.091 231.363 588.822 230.242C588.895 230.138 588.941 230.016 589.005 229.903C589.032 229.842 589.059 229.772 589.096 229.668C588.932 229.668 588.804 229.668 588.676 229.668C586.174 229.668 583.671 229.668 581.169 229.668C580.594 229.668 580.101 229.268 580.018 228.747C579.927 228.182 580.274 227.651 580.859 227.495C581.005 227.451 581.169 227.451 581.324 227.451C583.763 227.451 586.21 227.451 588.648 227.451C588.776 227.443 588.904 227.443 589.105 227.443Z" fill="#7083D4"></path><path opacity="0.4" d="M33.7639 343.236C43.8701 343.236 52.0629 335.04 52.0629 324.929C52.0629 314.818 43.8701 306.621 33.7639 306.621C23.6576 306.621 15.4648 314.818 15.4648 324.929C15.4648 335.04 23.6576 343.236 33.7639 343.236Z" fill="#24326E"></path><path d="M36.1051 321.443C35.5663 320.225 34.6804 319.495 33.3654 319.286C33.0183 319.234 32.6622 319.226 32.3151 319.226C30.927 319.217 29.548 319.226 28.1599 319.217C27.5024 319.217 27.0001 318.739 27.0001 318.122C26.991 317.487 27.4933 317 28.1691 317C32.0594 317 35.9498 317 39.8311 317C40.5069 317 41 317.487 41 318.122C40.9909 318.73 40.4977 319.208 39.8402 319.217C39.0822 319.226 38.3151 319.217 37.5845 319.217C37.9315 319.947 38.2786 320.66 38.653 321.443C38.9726 321.443 39.3836 321.443 39.7945 321.443C40.4977 321.451 41 321.921 41 322.564C40.9909 323.19 40.4886 323.651 39.8037 323.659C39.3927 323.659 38.9818 323.659 38.5982 323.659C37.4567 327.276 34.7535 328.424 30.9727 328.059C31.1462 328.241 31.2284 328.328 31.3197 328.415C33.6211 330.606 35.9224 332.797 38.2238 334.996C38.7717 335.518 38.8174 336.153 38.3699 336.631C37.9407 337.074 37.2557 337.126 36.7626 336.744C36.6804 336.674 36.5982 336.605 36.5252 336.526C33.5115 333.657 30.4887 330.788 27.4841 327.902C27.2741 327.702 27.0823 327.415 27.0275 327.146C26.8905 326.476 27.4476 325.885 28.1691 325.885C29.6668 325.876 31.1553 325.885 32.653 325.885C34.0138 325.876 35.0914 325.363 35.822 324.242C35.895 324.138 35.9407 324.016 36.0046 323.903C36.032 323.842 36.0594 323.772 36.0959 323.668C35.9316 323.668 35.8037 323.668 35.6758 323.668C33.1736 323.668 30.6713 323.668 28.1691 323.668C27.5937 323.668 27.1006 323.268 27.0184 322.747C26.9271 322.182 27.2741 321.651 27.8586 321.495C28.0047 321.451 28.1691 321.451 28.3243 321.451C30.7626 321.451 33.2101 321.451 35.6484 321.451C35.7763 321.443 35.9042 321.443 36.1051 321.443Z" fill="#7083D4"></path><path opacity="0.4" d="M521.743 120.52C541.483 120.52 557.486 104.509 557.486 84.7598C557.486 65.0102 541.483 49 521.743 49C502.003 49 486 65.0102 486 84.7598C486 104.509 502.003 120.52 521.743 120.52Z" fill="#7083D4"></path><path d="M526.56 77.8851C525.521 75.4508 523.812 73.9903 521.276 73.573C520.607 73.4686 519.92 73.4512 519.251 73.4512C516.574 73.4339 513.914 73.4512 511.237 73.4339C509.969 73.4339 509 72.4775 509 71.243C508.983 69.9737 509.951 69 511.255 69C518.757 69 526.26 69 533.746 69C535.049 69 536 69.9737 536 71.243C535.982 72.4601 535.031 73.4165 533.763 73.4339C532.301 73.4512 530.822 73.4339 529.413 73.4339C530.082 74.8944 530.752 76.3202 531.474 77.8851C532.09 77.8851 532.883 77.8851 533.675 77.8851C535.031 77.9025 536 78.8414 536 80.1281C535.982 81.38 535.014 82.3016 533.693 82.319C532.9 82.319 532.108 82.319 531.368 82.319C529.166 89.5522 523.953 91.8474 516.662 91.1171C516.996 91.4823 517.155 91.6561 517.331 91.83C521.769 96.2117 526.208 100.593 530.646 104.992C531.703 106.036 531.791 107.305 530.928 108.261C530.1 109.148 528.779 109.252 527.828 108.487C527.669 108.348 527.511 108.209 527.37 108.053C521.558 102.315 515.728 96.5768 509.934 90.8041C509.529 90.4042 509.159 89.8304 509.053 89.2914C508.789 87.9526 509.863 86.7702 511.255 86.7702C514.143 86.7528 517.014 86.7702 519.902 86.7702C522.527 86.7528 524.605 85.7269 526.014 83.4839C526.155 83.2753 526.243 83.0318 526.366 82.8058C526.419 82.6841 526.472 82.545 526.542 82.3363C526.225 82.3363 525.979 82.3363 525.732 82.3363C520.906 82.3363 516.08 82.3363 511.255 82.3363C510.145 82.3363 509.194 81.5365 509.035 80.4933C508.859 79.3631 509.529 78.3024 510.656 77.9894C510.938 77.9025 511.255 77.9025 511.554 77.9025C516.257 77.9025 520.977 77.9025 525.679 77.9025C525.926 77.8851 526.172 77.8851 526.56 77.8851Z" fill="#24326E"></path></g><path d="M381.002 211.776L420.72 234.69L497.864 177.405L517.723 189.626L546.747 164.42" stroke="white"></path><circle cx="419.302" cy="233.833" r="2.80591" fill="#5B84C0"></circle><circle cx="497.208" cy="176.93" r="2.80591" fill="#5B84C0"></circle><circle cx="517.07" cy="189.151" r="2.80591" fill="#5B84C0"></circle><circle cx="547.618" cy="163.181" r="2.80591" fill="#5B84C0"></circle><circle cx="379.583" cy="210.918" r="2.80591" fill="#5B84C0"></circle><rect x="24.4766" y="421.875" width="9.92232" height="69.2149" stroke="white"></rect><rect x="41.6406" y="448.403" width="9.92232" height="42.6893" stroke="white"></rect><rect x="58.8047" y="410.955" width="9.92232" height="80.1372" stroke="white"></rect><rect x="75.9668" y="393.791" width="9.92232" height="97.3008" stroke="white"></rect><rect x="69.3691" y="146.644" width="8.0196" height="46.972" fill="#E5AB65"></rect><rect x="72.8066" y="87.0684" width="303.599" height="407.854" rx="20" fill="url(#paint0_linear_2780_2)"></rect><rect x="87.6992" y="106.545" width="274.958" height="368.902" rx="22.6076" fill="url(#paint1_linear_2780_2)"></rect><path fill-rule="evenodd" clip-rule="evenodd" d="M271.006 169.697H114.051V166.26H271.006V169.697Z" fill="#808BC9"></path><path fill-rule="evenodd" clip-rule="evenodd" d="M334.017 169.697H271.006V166.26H334.017V169.697Z" fill="#808BC9"></path><path fill-rule="evenodd" clip-rule="evenodd" d="M271.006 180.009H114.051V176.572H271.006V180.009Z" fill="#808BC9"></path><path fill-rule="evenodd" clip-rule="evenodd" d="M334.017 180.009H271.006V176.572H334.017V180.009Z" fill="#808BC9"></path><path fill-rule="evenodd" clip-rule="evenodd" d="M271.006 189.173H114.051V185.736H271.006V189.173Z" fill="#808BC9"></path><path fill-rule="evenodd" clip-rule="evenodd" d="M334.017 189.173H271.006V185.736H334.017V189.173Z" fill="#808BC9"></path><path fill-rule="evenodd" clip-rule="evenodd" d="M271.006 199.483H114.051V194.9H271.006V199.483Z" fill="#808BC9"></path><path fill-rule="evenodd" clip-rule="evenodd" d="M334.017 199.483H271.006V194.9H334.017V199.483Z" fill="#808BC9"></path><path fill-rule="evenodd" clip-rule="evenodd" d="M271.006 208.648H114.051V205.211H271.006V208.648Z" fill="#808BC9"></path><path fill-rule="evenodd" clip-rule="evenodd" d="M334.017 208.648H271.006V205.211H334.017V208.648Z" fill="#808BC9"></path><path fill-rule="evenodd" clip-rule="evenodd" d="M271.006 226.326H114.051V222.889H271.006V226.326Z" fill="#808BC9"></path><path fill-rule="evenodd" clip-rule="evenodd" d="M334.017 226.326H271.006V222.889H334.017V226.326Z" fill="#808BC9"></path><path fill-rule="evenodd" clip-rule="evenodd" d="M271.006 236.638H114.051V233.201H271.006V236.638Z" fill="#808BC9"></path><path fill-rule="evenodd" clip-rule="evenodd" d="M334.017 236.638H271.006V233.201H334.017V236.638Z" fill="#808BC9"></path><path fill-rule="evenodd" clip-rule="evenodd" d="M271.006 245.802H114.051V242.365H271.006V245.802Z" fill="#808BC9"></path><path fill-rule="evenodd" clip-rule="evenodd" d="M334.017 245.802H271.006V242.365H334.017V245.802Z" fill="#808BC9"></path><path fill-rule="evenodd" clip-rule="evenodd" d="M271.006 256.112H114.051V251.529H271.006V256.112Z" fill="#808BC9"></path><path fill-rule="evenodd" clip-rule="evenodd" d="M271.006 275.587H114.051V271.004H271.006V275.587Z" fill="#808BC9"></path><path fill-rule="evenodd" clip-rule="evenodd" d="M271.006 295.061H114.051V290.479H271.006V295.061Z" fill="#808BC9"></path><path fill-rule="evenodd" clip-rule="evenodd" d="M334.017 256.112H271.006V251.529H334.017V256.112Z" fill="#808BC9"></path><path fill-rule="evenodd" clip-rule="evenodd" d="M334.017 275.587H271.006V271.004H334.017V275.587Z" fill="#808BC9"></path><path fill-rule="evenodd" clip-rule="evenodd" d="M334.017 295.061H271.006V290.479H334.017V295.061Z" fill="#808BC9"></path><path fill-rule="evenodd" clip-rule="evenodd" d="M271.006 265.277H114.051V261.84H271.006V265.277Z" fill="#808BC9"></path><path fill-rule="evenodd" clip-rule="evenodd" d="M271.006 284.751H114.051V281.314H271.006V284.751Z" fill="#808BC9"></path><path fill-rule="evenodd" clip-rule="evenodd" d="M271.006 304.226H114.051V300.789H271.006V304.226Z" fill="#808BC9"></path><path fill-rule="evenodd" clip-rule="evenodd" d="M334.017 265.277H271.006V261.84H334.017V265.277Z" fill="#808BC9"></path><path fill-rule="evenodd" clip-rule="evenodd" d="M334.017 284.751H271.006V281.314H334.017V284.751Z" fill="#808BC9"></path><path fill-rule="evenodd" clip-rule="evenodd" d="M334.017 304.226H271.006V300.789H334.017V304.226Z" fill="#808BC9"></path><circle cx="210.859" cy="96.8073" r="5.15546" fill="#E5AB65"></circle><rect x="218.305" y="95.0889" width="33.2241" height="4.58263" fill="#E5AB65"></rect><path d="M165.224 147.019H168.503V132.378H165.224V147.019ZM184.827 147.019V132.378H181.528V141.41L174.413 132.378H171.588V147.019H174.867V137.966L182.002 147.019H184.827ZM192.292 147.267C195.386 147.267 197.51 145.411 197.53 142.75C197.551 140.544 196.169 139.142 194.045 138.378L193.014 138.007C191.467 137.451 190.746 137.1 190.746 136.316C190.746 135.553 191.632 135.203 192.519 135.203C193.447 135.203 194.375 135.595 195.056 136.419L197.2 134.151C195.839 132.687 194.251 132.13 192.478 132.13C189.55 132.13 187.426 133.8 187.426 136.646C187.426 138.647 188.745 140.069 191.117 140.874L192.148 141.224C193.612 141.719 194.19 142.235 194.19 142.977C194.19 143.678 193.509 144.194 192.416 144.194C191.344 144.194 190.086 143.575 189.385 142.523L186.869 144.648C188.003 146.297 189.983 147.267 192.292 147.267ZM205.659 147.267C209.165 147.267 211.68 144.874 211.68 141.224V132.378H208.402V141.266C208.402 143.018 207.288 144.091 205.659 144.091C204.03 144.091 202.916 143.018 202.916 141.266V132.378H199.637V141.224C199.637 144.874 202.132 147.267 205.659 147.267ZM214.604 147.019H217.883V140.977H218.419L223.286 147.019H227.225L222.048 140.564C223.904 139.905 224.915 138.688 224.915 136.791C224.915 134.357 223.141 132.378 220.378 132.378H214.604V147.019ZM217.883 138.193V135.388H219.986C220.956 135.388 221.657 135.904 221.657 136.791C221.657 137.636 220.956 138.193 219.986 138.193H217.883ZM226.691 147.019H230.114L231.413 143.926H237.476L238.775 147.019H242.198L235.929 132.378H232.96L226.691 147.019ZM232.609 141.08L234.444 136.667L236.28 141.08H232.609ZM256.964 147.019V132.378H253.664V141.41L246.549 132.378H243.724V147.019H247.003V137.966L254.138 147.019H256.964ZM266.8 147.267C269.852 147.267 272.388 145.679 273.646 143.266L270.759 141.699C269.934 143.163 268.635 144.091 266.8 144.091C264.408 144.091 262.531 142.07 262.531 139.698C262.531 137.327 264.408 135.306 266.8 135.306C268.635 135.306 269.934 136.234 270.759 137.698L273.646 136.131C272.388 133.718 269.852 132.13 266.8 132.13C262.614 132.13 259.232 135.533 259.232 139.698C259.232 143.864 262.614 147.267 266.8 147.267ZM275.563 147.019H284.843V143.885H278.842V141.266H283.606V138.131H278.842V135.512H284.843V132.378H275.563V147.019Z" fill="#808BC9"></path><path opacity="0.34" d="M323.214 517.698C484.322 517.698 614.926 511.48 614.926 503.81C614.926 496.14 484.322 489.922 323.214 489.922C162.106 489.922 31.502 496.14 31.502 503.81C31.502 511.48 162.106 517.698 323.214 517.698Z" fill="#0A0A0A"></path><line x1="634.533" y1="440.793" x2="583.443" y2="440.793" stroke="#F5C17B" stroke-width="2.45387" stroke-dasharray="6.54 6.54"></line><line x1="610.521" y1="463.288" x2="572.4" y2="463.288" stroke="#F5C17B" stroke-width="2.45387" stroke-dasharray="6.54 6.54"></line><line x1="621.525" y1="415.854" x2="568.863" y2="415.854" stroke="#F5C17B" stroke-width="2.45387" stroke-dasharray="6.54 6.54"></line><path opacity="0.3" d="M333.65 87.22H348.467C355.865 87.22 362.733 83.3841 366.613 77.0858L368.81 73.5193C374.625 64.0802 387.559 62.1927 395.829 69.5764L398.16 71.6581C399.922 73.2309 402.201 74.1002 404.562 74.1002V74.1002C413.167 74.1002 417.436 84.5384 411.299 90.5687L384.404 116.993C379.735 121.58 377.048 127.813 376.919 134.356L376.504 155.367L360.501 144.713C347.022 135.74 338.087 121.371 336.001 105.313L333.65 87.22Z" fill="black"></path><path d="M338.994 53.6786V53.6786C356.02 53.6786 372.264 46.5327 383.769 33.982L385.309 32.3027L387.234 34.2688C399.389 46.6825 416.031 53.6786 433.404 53.6786V53.6786V90.793C433.404 113.781 420.052 134.676 399.192 144.334L385.309 150.761L372.43 144.569C351.992 134.743 338.994 114.073 338.994 91.3952V53.6786Z" fill="white"></path><path fill-rule="evenodd" clip-rule="evenodd" d="M415.377 67.9131C417.002 69.2583 417.229 71.6662 415.884 73.2912L380.155 116.452C379.495 117.25 378.539 117.745 377.507 117.825C376.475 117.904 375.454 117.562 374.679 116.875L359.876 103.758C358.297 102.359 358.152 99.9447 359.551 98.3658C360.95 96.7869 363.364 96.6411 364.943 98.0402L376.789 108.538L409.999 68.4198C411.344 66.7947 413.752 66.5679 415.377 67.9131Z" fill="#71BEB5"></path><path d="M458.524 313.713C449.643 311.035 437.32 316.121 432.269 318.998C425.22 329.042 414.014 350.433 425.573 355.649C440.022 362.169 460.991 340.319 464.339 338.204C467.687 336.09 469.625 317.06 458.524 313.713Z" fill="#323C75"></path><rect x="442.547" y="309.298" width="10.7704" height="55.3665" transform="rotate(-28.2327 442.547 309.298)" fill="#262F63"></rect><path d="M349.758 355.92H343.125L358.532 375.608H364.737L349.758 355.92Z" fill="#262F63"></path><path d="M415.656 352.07L411.268 351.333L401.109 375.298L406.284 376.168L415.656 352.07Z" fill="#262F63"></path><path d="M163.621 372.02V359.304L169.627 355.721V372.02H163.621Z" fill="#262F63"></path><path d="M159.055 360.387V346.456C172.028 346.456 174.711 351.42 174.43 353.902C174.719 358.707 164.3 360.228 159.055 360.387Z" fill="#262F63"></path><path d="M152.33 356.627C150.792 351.725 156.173 347.938 159.056 346.657V359.991C154.732 360.952 152.77 358.148 152.33 356.627Z" fill="url(#paint2_linear_2780_2)"></path><path d="M289.021 366.233C283.51 367.612 285.321 373.952 286.916 376.949C288.064 379.629 291.126 386.594 294.188 393.024C297.25 399.454 302.481 400.934 304.713 400.87H322.128C326.568 400.87 327.805 397.043 327.869 395.129C327.741 389.707 327.563 377.447 327.869 371.782C328.175 366.118 322.893 364.956 320.214 365.084C312.113 364.892 294.533 364.854 289.021 366.233Z" fill="#323C75"></path><rect x="461.422" y="349.926" width="17.3161" height="37.1841" transform="rotate(-28.2327 461.422 349.926)" fill="#323C75"></rect><path fill-rule="evenodd" clip-rule="evenodd" d="M229.051 355.187C255.574 357.505 278.734 370.09 294.957 388.684L278.155 391.339C265.112 379.904 248.596 372.407 230.194 370.798C197.284 367.921 167.048 384.639 150.362 411.537L129.467 414.839C145.809 376.578 185.351 351.367 229.051 355.187Z" fill="#323C75"></path><path fill-rule="evenodd" clip-rule="evenodd" d="M498.193 362.266C522.823 352.363 549.089 353.074 571.922 362.24L561.072 371.702L559.579 372.619C542.428 367.961 523.836 368.613 506.276 375.674C479.472 386.451 461.271 409.669 455.312 436.418L436.388 447.38C438.885 410.713 461.809 376.896 498.193 362.266Z" fill="#323C75"></path><path d="M185.461 348.358L190.586 355.248C194.583 354.04 246.318 360.042 278.95 364.285C311.582 368.527 328.327 362.854 331.359 358.872C334.39 354.889 330.036 345.016 328.327 343.137C326.961 341.634 323.914 341.815 322.561 342.093C318.504 343.068 307.442 345.351 295.654 346.687C280.919 348.357 249.527 337.083 218.562 331.236C193.789 326.559 186.173 340.702 185.461 348.358Z" fill="#262F63"></path><circle cx="530.086" cy="439.455" r="57.8559" fill="#4759B2" stroke="#262F63" stroke-width="13"></circle><circle cx="530.087" cy="439.454" r="45.4656" fill="#4759B2" stroke="#262F63" stroke-width="6"></circle><circle cx="530.086" cy="439.451" r="12.3904" fill="#4759B2" stroke="#262F63" stroke-width="7"></circle><circle cx="530.086" cy="439.453" r="10.4669" stroke="#ECF4FD" stroke-width="3"></circle><circle cx="218.938" cy="439.456" r="57.8559" fill="#4759B2" stroke="#262F63" stroke-width="13"></circle><path d="M302.234 420.412L228.156 429.634V437.584L306.004 429.634L302.234 420.412Z" fill="#323C75"></path><circle cx="218.937" cy="439.452" r="12.3904" stroke="#262F63" stroke-width="7"></circle><circle cx="218.938" cy="439.454" r="10.4669" stroke="#E7EFFD" stroke-width="3"></circle><path d="M522.161 395.703L524.553 422.784L509.328 400.488M505.413 402.337L517.049 430.504M517.049 430.504L496.603 410.929M517.049 430.504L489.208 422.784M517.049 430.504L486.163 435.181M487.903 426.807L514.872 441.815M514.872 441.815L493.341 464.545M514.872 441.815L487.903 453.125M514.872 441.815L485.619 439.096M499.649 407.884L525.145 424.516L534.559 395.159M526.185 395.159L535.215 424.516M535.215 424.516L538.8 395.703M535.215 424.516L550.981 400.488M535.215 424.516L561.204 407.884L544.891 430.504M544.891 430.504L554.57 402.337M544.891 430.504L571.753 422.784M544.891 430.504L572.732 435.181M572.732 426.807L547.116 441.3M547.609 441.815L572.732 453.125M547.116 441.815L565.445 465.523L541.845 452.147M541.845 452.147L571.753 456.823M541.845 452.147L553.156 476.943M541.845 452.147L541.084 481.184M549.893 478.357L533.254 455.953L537.387 482.489M523.031 482.489L530.209 455.953L510.742 479.009M519.224 481.184L519.856 451.471M519.856 451.471L506.826 476.943M519.856 451.471L496.603 467.807M519.856 451.471L489.208 456.823" stroke="#94A3B8"></path><path d="M211.012 395.704L213.405 422.785L198.179 400.489M194.264 402.338L205.901 430.505M205.901 430.505L185.455 410.93M205.901 430.505L178.06 422.785M205.901 430.505L175.015 435.182M176.755 426.808L203.724 441.816M203.724 441.816L182.192 464.546M203.724 441.816L176.755 453.126M203.724 441.816L174.471 439.097M188.5 407.884L213.997 424.517L223.41 395.16M215.036 395.16L224.067 424.517M224.067 424.517L227.652 395.704M224.067 424.517L239.832 400.489M224.067 424.517L250.055 407.884L233.742 430.505M233.742 430.505L243.421 402.338M233.742 430.505L260.605 422.785M233.742 430.505L261.583 435.182M261.583 426.808L235.968 441.301M236.461 441.816L261.583 453.126M235.968 441.816L254.297 465.524L230.697 452.148M230.697 452.148L260.605 456.824M230.697 452.148L242.008 476.944M230.697 452.148L229.936 481.185M238.745 478.358L222.105 455.954L226.238 482.49M211.882 482.49L219.06 455.954L199.593 479.01M208.076 481.185L208.708 451.472M208.708 451.472L195.678 476.944M208.708 451.472L185.455 467.808M208.708 451.472L178.06 456.824" stroke="#94A3B8"></path><path d="M363.026 376.923C328.642 368.294 296.256 374.068 284.361 378.033L285.63 387.233C318.872 377.337 350.338 383.11 361.915 387.233L363.026 376.923Z" fill="#262F63"></path><path d="M483.644 294.122C462.107 293.552 458.083 308.432 458.763 315.943C459.579 329.731 475.69 334.332 483.644 334.909V294.122Z" fill="#262F63"></path><path d="M483.746 334.501V294.223C486.159 294.97 491.088 299.566 491.496 311.966C491.904 324.366 486.499 332.156 483.746 334.501Z" fill="url(#paint3_linear_2780_2)"></path><path d="M174.304 330.362C168.804 328.284 167.837 332.655 168.04 335.1L185.692 360.3C193.392 360.76 216.135 362.509 245.508 365.816C282.226 369.95 301.015 431.148 309.634 449.421C316.53 464.039 328.66 463.331 333.863 461.149C327.673 461.149 321.597 454.908 319.333 451.787L275.896 361.682H267.952L269.48 367.334C257.014 355.479 200.908 353.28 190.192 353.28L174.304 330.362Z" fill="#262F63"></path><path d="M179.207 437.005L148.273 435.829V443.476L179.207 445.243L183.913 448.478C206.806 449.654 254.916 452.243 264.21 453.184C273.505 454.125 276.515 451.909 276.858 450.684C287.447 450.978 300.241 457.008 305.536 462.743C309.771 467.332 317.889 468.381 321.419 468.332L408.481 466.567C411.864 465.537 420.658 458.92 428.776 440.683C438.924 417.888 445.836 398.918 434.365 389.947C425.188 382.77 406.433 382.25 401.188 382.887V391.123C406.835 389.829 422.55 391.661 426.717 392.739C435.659 396.739 434.267 406.073 432.453 410.239C428.923 418.965 421.04 438.711 417.746 447.888C414.452 457.065 404.02 460.633 399.216 461.271L315.536 459.8C296.829 446.035 283.623 443.182 279.358 443.476C278.064 441.005 274.799 439.505 273.328 439.064L183.913 434.359L179.207 437.005Z" fill="#262F63"></path><path d="M267.636 373.32L212.247 439.299L217.754 445.032L277.168 376.952L267.636 373.32Z" fill="#262F63"></path><rect x="338.084" y="364.293" width="9.27495" height="26.0036" transform="rotate(4.87978 338.084 364.293)" fill="#262F63"></rect><rect x="349.537" y="370.778" width="4.85868" height="16.0983" transform="rotate(4.87978 349.537 370.778)" fill="#262F63"></rect><rect x="356.59" y="372.02" width="4.85868" height="16.0983" transform="rotate(4.87978 356.59 372.02)" fill="#262F63"></rect><path d="M450.499 324.228L435.848 334.065C435.543 334.27 435.128 334.086 435.075 333.722L434.436 329.343C434.408 329.153 434.492 328.964 434.651 328.856L448.57 319.469C448.842 319.286 449.214 319.41 449.322 319.719L450.692 323.649C450.767 323.863 450.688 324.102 450.499 324.228Z" fill="#262F63"></path><path d="M381.022 459.996L343.324 459.354C343.634 456.034 342.889 453.195 341.728 451.048C340.513 448.802 338.813 447.263 337.338 446.772C336.609 446.529 335.916 446.487 335.248 446.456C335.201 446.454 335.154 446.452 335.107 446.449C334.478 446.421 333.858 446.393 333.152 446.238C331.66 445.91 329.714 444.99 326.798 442.074C324.337 439.614 321.778 438.828 319.564 438.88C317.679 438.924 316.069 439.574 315.002 440.268L305.416 422.538L308.669 421.996L309.371 421.879L309.023 421.258C308.014 419.457 305.825 414.789 305.137 410.577C304.843 408.777 306.18 407.302 308.329 406.146C310.425 405.017 313.072 404.324 314.882 404.035L335.449 403.158L335.518 403.156L335.583 403.134C348.484 398.891 360.737 402.527 365.214 404.855L365.225 404.861L365.238 404.867C371.932 407.903 388.395 414.111 400.592 414.552C406.543 414.768 410.038 416.587 412.011 418.694C413.992 420.81 414.489 423.269 414.354 424.856L414.353 424.867L414.352 424.879C414.243 427.618 413.958 433.896 413.696 437.127C413.576 438.615 412.976 439.453 412.324 439.923C411.653 440.408 410.879 440.535 410.391 440.505L410.376 440.504H410.36H403.239L403.006 441.446L418.237 449.483L411.544 457.574L388.567 445.924L388.117 445.696L387.893 446.147L381.022 459.996Z" fill="#262F63" stroke="#262F63"></path><path d="M345.505 419.505C344.685 416.537 347.385 413.794 350.365 414.568L382.512 422.91C385.493 423.684 386.518 427.394 384.358 429.588L361.06 453.257C358.9 455.451 355.174 454.485 354.354 451.517L345.505 419.505Z" fill="#E8EFFD"></path><path d="M435.654 377.04H403.145V380.149H432.964L435.654 377.04Z" fill="#262F63"></path><path d="M351.856 425.755C351.036 422.788 353.736 420.044 356.716 420.818L373.925 425.284C376.906 426.057 377.931 429.767 375.771 431.962L363.299 444.632C361.139 446.827 357.413 445.86 356.593 442.892L351.856 425.755Z" fill="#323C75"></path><path d="M356.59 369.656L371.627 414.816H394.443L408.962 369.656C408.53 365.588 402.915 355.499 383.554 355.499C363.972 355.498 357.541 364.286 356.59 369.656Z" fill="#262F63"></path><circle cx="419.586" cy="280.85" r="8.8127" fill="#262F63"></circle><rect x="395.803" y="286.77" width="22.2838" height="9.75597" transform="rotate(-24.9314 395.803 286.77)" fill="#262F63"></rect><path d="M431.56 287.452C429.747 285.526 427.783 285.327 427.027 285.468V277.252C433.316 276.006 436.446 280.315 439.987 285.468L451.122 305.682L444.182 308.94C441.09 303.227 433.373 289.377 431.56 287.452Z" fill="#262F63"></path><rect x="450.064" y="322.903" width="7.98507" height="143.373" transform="rotate(17.6344 450.064 322.903)" fill="#262F63"></rect><path d="M328.742 345.632C328.742 351.544 333.176 355.731 335.393 357.086C358.977 356.223 408.585 354.424 418.339 354.128C428.093 353.833 433.857 342.798 435.52 337.317C438.623 319.878 429.3 311.086 424.251 308.869C422.65 307.515 413.093 305.36 387.673 307.576C362.253 309.793 343.952 322.293 337.979 328.266C334.9 331.592 328.742 339.72 328.742 345.632Z" fill="url(#paint4_linear_2780_2)"></path><circle cx="218.938" cy="439.454" r="45.4656" stroke="#262F63" stroke-width="6"></circle><defs><linearGradient id="paint0_linear_2780_2" x1="224.902" y1="108.489" x2="222.608" y2="538.533" gradientUnits="userSpaceOnUse"><stop stop-color="#F3C17D"></stop><stop offset="1" stop-color="#E2A660"></stop></linearGradient><linearGradient id="paint1_linear_2780_2" x1="225.178" y1="106.545" x2="225.178" y2="475.447" gradientUnits="userSpaceOnUse"><stop stop-color="#F3FAFC"></stop><stop offset="1" stop-color="#DDE5FC"></stop></linearGradient><linearGradient id="paint2_linear_2780_2" x1="156.39" y1="359.65" x2="156.359" y2="353.601" gradientUnits="userSpaceOnUse"><stop stop-color="#E2A65F"></stop><stop offset="1" stop-color="#F2C17C"></stop></linearGradient><linearGradient id="paint3_linear_2780_2" x1="487.64" y1="296.134" x2="486.927" y2="334.488" gradientUnits="userSpaceOnUse"><stop stop-color="#F3FAFC"></stop><stop offset="1" stop-color="#DDE5FC"></stop></linearGradient><linearGradient id="paint4_linear_2780_2" x1="382.366" y1="351.379" x2="382.366" y2="310.716" gradientUnits="userSpaceOnUse"><stop stop-color="#74C0B8"></stop><stop offset="1" stop-color="#4EA399"></stop></linearGradient></defs></svg> 